<svg xmlns="http://www.w3.org/2000/svg" width="96" height="96"><defs><clipPath id="a" clipPathUnits="userSpaceOnUse"><path fill="none" stroke="#487cff" d="M-1.5-3.5h19v15h-19zM6 6c-4 4-6 8 2 6 8 2 6-2 2-6 0 0 0-2-2-2S6 6 6 6" class="powerclip"/></clipPath><clipPath id="b" clipPathUnits="userSpaceOnUse"><path fill="none" stroke="#487cff" d="M.49998774 6.5H15.500012v13H.49998774ZM6 6c-4 4-6 8 2 6 8 2 6-2 2-6 0 0 0-2-2-2S6 6 6 6" class="powerclip"/></clipPath></defs><g stroke="#14283c" stroke-linejoin="round"><path fill="none" stroke="#487cff" stroke-linecap="round" d="M12 2s-2 0-4 4M4 2s2 0 4 4" clip-path="url(#a)" transform="translate(-11.076923 -11.076923) scale(7.3846154)"/><path fill="none" stroke="#487cff" stroke-linecap="round" d="M6 12s0 2 2 2 2-2 2-2" clip-path="url(#b)" transform="translate(-11.076923 -11.076923) scale(7.3846154)"/><path fill="none" stroke="#487cff" stroke-linecap="round" stroke-width="7.3846154" d="M33.2307694 33.2307694h0s0-14.7692308 14.7692308-14.7692308S62.769231 33.2307694 62.769231 33.2307694c29.5384616 29.5384616 44.3076924 59.0769232-14.7692308 44.3076924C-11.076923 92.3076926 3.6923078 62.769231 33.2307694 33.2307694"/><path fill="none" stroke="#487cff" stroke-linecap="round" stroke-width="7.3846154" d="M62.769231 48.0000002c0 14.7692308-7.3846154 22.1538462-7.3846154 22.1538462M33.2307694 48.0000002c0 14.7692308 7.3846154 22.1538462 7.3846154 22.1538462"/></g></svg>
