<svg xmlns="http://www.w3.org/2000/svg" width="96" height="96">
  <defs>
    <clipPath id="a" clipPathUnits="userSpaceOnUse">
      <path fill="none" stroke="#487cff" d="M-1.5-3.5h19v15h-19zM6 6c-4 4-6 8 2 6 8 2 6-2 2-6 0 0 0-2-2-2S6 6 6 6" class="powerclip"/>
    </clipPath>
    <clipPath id="b" clipPathUnits="userSpaceOnUse">
      <path fill="none" stroke="#487cff" d="M.5 6.5h15v13H.5ZM6 6c-4 4-6 8 2 6 8 2 6-2 2-6 0 0 0-2-2-2S6 6 6 6" class="powerclip"/>
    </clipPath>
  </defs>
  <g stroke="#14283c" stroke-linejoin="round">
    <path fill="none" stroke="#487cff" stroke-linecap="round" d="M12 2s-2 0-4 4M4 2s2 0 4 4" clip-path="url(#a)" transform="matrix(7.38 0 0 7.38 -11.08 -11.08)"/>
    <path fill="none" stroke="#487cff" stroke-linecap="round" d="M6 12s0 2 2 2 2-2 2-2" clip-path="url(#b)" transform="matrix(7.38 0 0 7.38 -11.08 -11.08)"/>
    <path fill="none" stroke="#487cff" stroke-linecap="round" stroke-width="7.38" d="M33.23 33.23h0s0-14.77 14.77-14.77 14.77 14.77 14.77 14.77C92.3 62.77 107.07 92.31 48 77.53c-59.08 14.78-44.3-14.76-14.77-44.3"/>
    <path fill="none" stroke="#487cff" stroke-linecap="round" stroke-width="7.38" d="M62.77 48c0 14.77-7.39 22.15-7.39 22.15M33.23 48c0 14.77 7.39 22.15 7.39 22.15"/>
  </g>
</svg>
