<?xml version="1.0" encoding="UTF-8" standalone="no"?>
<svg
   width="96"
   height="96"
   version="1.1"
   id="svg14"
   sodipodi:docname="logo-searx.svg"
   inkscape:version="1.3.2 (091e20ef0f, 2023-11-25, custom)"
   inkscape:export-filename="logo-light.png"
   inkscape:export-xdpi="6000"
   inkscape:export-ydpi="6000"
   xmlns:inkscape="http://www.inkscape.org/namespaces/inkscape"
   xmlns:sodipodi="http://sodipodi.sourceforge.net/DTD/sodipodi-0.dtd"
   xmlns="http://www.w3.org/2000/svg"
   xmlns:svg="http://www.w3.org/2000/svg">
  <defs
     id="defs18">
    <inkscape:path-effect
       effect="powerclip"
       id="path-effect9"
       is_visible="true"
       lpeversion="1"
       inverse="true"
       flatten="false"
       hide_clip="false"
       message="Use fill-rule evenodd on &lt;b&gt;fill and stroke&lt;/b&gt; dialog if no flatten result after convert clip to paths." />
    <inkscape:path-effect
       effect="powerclip"
       id="path-effect3"
       is_visible="true"
       lpeversion="1"
       inverse="true"
       flatten="false"
       hide_clip="false"
       message="Use fill-rule evenodd on &lt;b&gt;fill and stroke&lt;/b&gt; dialog if no flatten result after convert clip to paths." />
    <clipPath
       clipPathUnits="userSpaceOnUse"
       id="clipPath3">
      <path
         fill="#4e2e05"
         stroke-linecap="round"
         d="m 6,6 v 0 c 0,0 0,-2 2,-2 2,0 2,2 2,2 4,4 6,8 -2,6 C 0,14 2,10 6,6"
         id="path3"
         style="display:none;fill:none;fill-opacity:1;stroke:#487cff;stroke-opacity:1" />
      <path
         id="lpe_path-effect3"
         style="fill:none;fill-opacity:1;stroke:#487cff;stroke-opacity:1"
         class="powerclip"
         d="m -1.5,-3.5 h 19 v 15 h -19 z M 6,6 c -4,4 -6,8 2,6 8,2 6,-2 2,-6 C 10,6 10,4 8,4 6,4 6,6 6,6 v 0" />
    </clipPath>
    <clipPath
       clipPathUnits="userSpaceOnUse"
       id="clipPath9">
      <path
         fill="#4e2e05"
         stroke-linecap="round"
         d="m 6,6 v 0 c 0,0 0,-2 2,-2 2,0 2,2 2,2 4,4 6,8 -2,6 C 0,14 2,10 6,6"
         id="path9"
         style="display:none;fill:none;fill-opacity:1;stroke:#487cff;stroke-opacity:1" />
      <path
         id="lpe_path-effect9"
         style="display:inline;fill:none;fill-opacity:1;stroke:#487cff;stroke-opacity:1"
         class="powerclip"
         d="M 0.49998774,6.5 H 15.500012 v 13 H 0.49998774 Z M 6,6 c -4,4 -6,8 2,6 8,2 6,-2 2,-6 C 10,6 10,4 8,4 6,4 6,6 6,6 v 0" />
    </clipPath>
  </defs>
  <sodipodi:namedview
     id="namedview16"
     pagecolor="#505050"
     bordercolor="#eeeeee"
     borderopacity="1"
     inkscape:showpageshadow="0"
     inkscape:pageopacity="0"
     inkscape:pagecheckerboard="0"
     inkscape:deskcolor="#505050"
     showgrid="true"
     inkscape:zoom="2.9646925"
     inkscape:cx="36.428736"
     inkscape:cy="54.811756"
     inkscape:window-width="2560"
     inkscape:window-height="1011"
     inkscape:window-x="0"
     inkscape:window-y="0"
     inkscape:window-maximized="1"
     inkscape:current-layer="svg14">
    <inkscape:grid
       id="grid11"
       units="px"
       originx="0"
       originy="0"
       spacingx="48"
       spacingy="48"
       empcolor="#0099e5"
       empopacity="0.30196078"
       color="#0099e5"
       opacity="0.14901961"
       empspacing="5"
       dotted="false"
       gridanglex="30"
       gridanglez="30"
       visible="true" />
  </sodipodi:namedview>
  <g
     stroke="#fc9505"
     stroke-linejoin="round"
     id="g12"
     style="stroke:#14283c;stroke-opacity:1"
     transform="matrix(7.3846154,0,0,7.3846154,-11.076923,-11.076923)">
    <path
       fill="none"
       stroke-linecap="round"
       d="M 12,2 C 12,2 10,2 8,6 M 4,2 c 0,0 2,0 4,4"
       id="path6"
       style="stroke:#487cff;stroke-opacity:1"
       clip-path="url(#clipPath3)"
       inkscape:path-effect="#path-effect3"
       inkscape:original-d="M 12,2 C 12,2 10,2 8,6 M 4,2 c 0,0 2,0 4,4" />
    <path
       fill="#4e2e05"
       stroke-linecap="round"
       d="m 6,12 c 0,0 0,2 2,2 2,0 2,-2 2,-2"
       id="path4"
       style="fill:none;fill-opacity:1;stroke:#487cff;stroke-opacity:1"
       inkscape:label="path4"
       clip-path="url(#clipPath9)"
       inkscape:path-effect="#path-effect9"
       inkscape:original-d="m 6,12 c 0,0 0,2 2,2 2,0 2,-2 2,-2" />
    <path
       fill="#4e2e05"
       stroke-linecap="round"
       d="m 6,6 v 0 c 0,0 0,-2 2,-2 2,0 2,2 2,2 4,4 6,8 -2,6 C 0,14 2,10 6,6"
       id="path1"
       style="display:inline;fill:none;fill-opacity:1;stroke:#487cff;stroke-opacity:1" />
    <path
       fill="none"
       stroke-linecap="round"
       d="m 10,8 c 0,2 -1,3 -1,3 M 6,8 c 0,2 1,3 1,3"
       id="path10"
       inkscape:label="path10"
       style="stroke:#487cff;stroke-opacity:1" />
  </g>
</svg>
