<svg xmlns="http://www.w3.org/2000/svg" width="71.32" height="7.52">
  <path fill="#487cff" d="M17.53 50.45v-5.16h1.19v.76h.07q.12-.36.34-.62.23-.26.64-.26.75 0 .92.88h.06q.06-.18.15-.34.09-.16.22-.28.13-.12.3-.2.19-.06.43-.06 1.08 0 1.08 1.59v3.69h-1.2V46.9q0-.36-.12-.5-.12-.15-.32-.15t-.33.13q-.13.12-.13.38v3.68h-1.2V46.9q0-.36-.12-.5-.11-.15-.31-.15t-.34.13q-.14.12-.14.38v3.68zm8.7.12q-.6 0-1.08-.18-.48-.2-.82-.54-.33-.35-.51-.85t-.18-1.13q0-.63.18-1.13.18-.5.5-.85.35-.35.83-.53.48-.2 1.08-.2.6 0 1.08.2.48.18.8.53.35.35.53.85.18.5.18 1.13 0 .63-.18 1.13-.18.5-.52.85-.33.35-.81.54-.48.18-1.08.18zm0-1.1q.5 0 .78-.31t.28-.88v-.82q0-.57-.28-.88-.28-.31-.78-.31t-.78.3q-.28.32-.28.89v.82q0 .57.28.88.28.3.78.3zm6.4.98q-.8 0-1.2-.42-.38-.42-.38-1.07v-2.52h-1.4v-1.15h.9q.34 0 .48-.13.14-.13.14-.48v-1.21h1.36v1.82h2v1.15h-2v2.86h2v1.15zm3.25-7.4h1.48v3.18h.06q.09-.22.22-.41.13-.2.3-.33.2-.15.44-.23.25-.1.56-.1.37 0 .68.14.3.12.53.37.22.25.34.6.13.37.13.84v3.34h-1.48V47.3q0-1-.87-1-.17 0-.34.05-.16.04-.3.14-.12.09-.2.23-.07.14-.07.33v3.39h-1.48zm8.35 7.52q-.56 0-.81-.24-.24-.25-.24-.6v-.34q0-.34.24-.58.25-.25.8-.25.57 0 .8.25.26.24.26.58v.35q0 .34-.25.59-.24.24-.8.24zm3.3-.12v-5.16h1.19v.76h.07q.12-.36.34-.62.23-.26.64-.26.75 0 .92.88h.06q.06-.18.15-.34.09-.16.22-.28.13-.12.3-.2.19-.06.43-.06 1.08 0 1.08 1.59v3.69h-1.2V46.9q0-.36-.12-.5-.12-.15-.32-.15t-.33.13q-.13.12-.13.38v3.68h-1.2V46.9q0-.36-.12-.5-.11-.15-.31-.15t-.34.13q-.14.12-.14.38v3.68zm8.7.12q-.6 0-1.08-.18-.48-.2-.82-.54-.33-.35-.51-.85t-.18-1.13q0-.63.18-1.13.18-.5.5-.85.35-.35.83-.53.48-.2 1.08-.2.6 0 1.08.2.48.18.8.53.35.35.53.85.18.5.18 1.13 0 .63-.18 1.13-.18.5-.52.85-.33.35-.81.54-.48.18-1.08.18zm0-1.1q.5 0 .78-.31t.28-.88v-.82q0-.57-.28-.88-.28-.31-.78-.31t-.78.3q-.28.32-.28.89v.82q0 .57.28.88.28.3.78.3zm3.65.98v-5.16h1.48v.94h.06q.09-.22.22-.41.13-.2.3-.33.2-.15.44-.23.25-.1.56-.1.37 0 .68.14.3.12.53.37.22.25.34.6.13.37.13.84v3.34h-1.48V47.3q0-1-.87-1-.17 0-.34.05-.16.04-.3.14-.12.09-.2.23-.07.14-.07.33v3.39zm8.29.12q-.86 0-1.5-.26-.63-.26-.95-.71l.83-.77q.3.33.7.52.4.18.93.18.44 0 .69-.13.25-.14.25-.42 0-.22-.17-.3-.17-.1-.47-.14l-.83-.13q-.35-.05-.65-.15-.3-.11-.52-.3-.22-.17-.35-.43-.13-.26-.13-.63 0-.81.62-1.27.62-.46 1.74-.46.76 0 1.29.2.54.2.86.59l-.74.84q-.23-.25-.6-.42-.35-.17-.86-.17-.86 0-.86.52 0 .23.17.32.17.08.47.13l.82.13q.35.05.65.16.3.1.52.28.23.18.36.44.13.26.13.63 0 .8-.63 1.28-.62.47-1.77.47zm6.46-.12q-.8 0-1.2-.42-.38-.42-.38-1.07v-2.52h-1.4v-1.15h.9q.34 0 .48-.13.14-.13.14-.48v-1.21h1.36v1.82h2v1.15h-2v2.86h2v1.15zm5.74.12q-1.3 0-1.97-.72-.67-.72-.67-1.96 0-.63.17-1.13.18-.51.5-.86.33-.36.79-.54.47-.2 1.05-.2.58 0 1.04.2.46.18.78.52t.49.83q.18.48.18 1.08v.44H79.2v.09q0 .5.3.8.32.3.92.3.46 0 .79-.16.33-.18.57-.47l.8.87q-.3.37-.84.64t-1.37.27zm-.12-4.34q-.48 0-.77.3-.28.29-.28.79v.08h2.08v-.08q0-.51-.28-.8-.27-.3-.75-.3zm3.72 3.07h1.19v-2.86h-1.2v-1.15h2.68v1.46h.07q.07-.28.19-.54.13-.27.32-.47.2-.21.48-.33.28-.12.66-.12h.49v1.36h-1.1q-.55 0-.83.33-.28.32-.28.79v1.53h1.7v1.15h-4.37z" aria-label="moth.monster" transform="translate(-17.53 -43.05)"/>
</svg>
