<?xml version="1.0" encoding="UTF-8" standalone="no"?>
<!-- Created with Inkscape (http://www.inkscape.org/) -->

<svg
   version="1.1"
   id="svg1"
   width="713"
   height="75"
   viewBox="0 0 713 75"
   sodipodi:docname="searxng.svg"
   inkscape:version="1.4 (e7c3feb100, 2024-10-09)"
   xmlns:inkscape="http://www.inkscape.org/namespaces/inkscape"
   xmlns:sodipodi="http://sodipodi.sourceforge.net/DTD/sodipodi-0.dtd"
   xmlns="http://www.w3.org/2000/svg"
   xmlns:svg="http://www.w3.org/2000/svg">
  <defs
     id="defs1" />
  <sodipodi:namedview
     id="namedview1"
     pagecolor="#505050"
     bordercolor="#eeeeee"
     borderopacity="1"
     inkscape:showpageshadow="0"
     inkscape:pageopacity="0"
     inkscape:pagecheckerboard="0"
     inkscape:deskcolor="#d1d1d1"
     inkscape:zoom="1.0715288"
     inkscape:cx="216.97971"
     inkscape:cy="27.064136"
     inkscape:window-width="2560"
     inkscape:window-height="1011"
     inkscape:window-x="0"
     inkscape:window-y="0"
     inkscape:window-maximized="1"
     inkscape:current-layer="g1" />
  <g
     inkscape:groupmode="layer"
     inkscape:label="Image"
     id="g1">
    <path
       style="display:inline;fill:#487cff;fill-opacity:1"
       d="M 77.013787,73.041054 C 66.188489,69.304531 60.095086,58.593436 61.321756,45.457317 62.807369,29.54823 71.275086,21.765178 87.120671,21.744393 c 6.466905,-0.0085 8.399863,0.414093 12.767254,2.791125 6.530595,3.554396 10.503055,9.397971 12.042775,17.715177 1.26436,6.829792 0.3411,14.38924 -2.40628,19.702078 -5.68836,11.000083 -19.308144,15.645331 -32.510633,11.088281 z M 93.955854,61.197992 c 2.023364,-2.023364 3.000673,-4.246468 3.516915,-8 C 99.203385,40.614913 95.161508,32 87.527263,32 c -5.079097,0 -9.11132,2.368067 -10.418846,6.118839 -1.554542,4.459362 -1.380988,16.293044 0.297885,20.311154 1.76428,4.222515 3.938589,5.501072 9.420621,5.539598 3.43009,0.02411 4.90769,-0.550358 7.128931,-2.771599 z M 261.01971,73.715551 c -3.44011,-1.740609 -5.18205,-5.508053 -4.64363,-10.043167 0.57064,-4.806444 2.91859,-7.449438 7.35767,-8.282213 4.36996,-0.81981 10.91983,1.094012 12.24993,3.57934 1.29381,2.417499 1.31623,9.601582 0.0374,11.991047 -1.91246,3.573456 -10.32895,5.119137 -15.0014,2.754993 z m 115.56151,-0.72975 C 363.82938,68.006559 357.98578,53.512994 362.54293,38.167408 365.68409,27.589975 374.26877,21.720823 386.6492,21.686491 402.92765,21.641351 412,31.198917 412,48.393118 c 0,12.59305 -5.08895,20.625723 -15.54562,24.538066 -6.8226,2.552663 -13.42917,2.57082 -19.87316,0.05462 z m 17.4957,-11.908878 C 396.92385,58.229992 397,57.889339 397,48 c 0,-9.889339 -0.0761,-10.229992 -2.92308,-13.076923 -4.82725,-4.827249 -14.16369,-3.417578 -16.88223,2.548981 -1.73181,3.800894 -1.53077,17.977359 0.30529,21.5279 1.96966,3.808896 4.07889,4.932751 9.32694,4.969633 3.47214,0.0244 4.90438,-0.547048 7.25,-2.892668 z m 102.65755,12.900362 c -4.90979,-1.241923 -10.78816,-4.270927 -12.96925,-6.682794 -1.66526,-1.841456 -1.57761,-2.071794 2.18727,-5.748094 l 3.92203,-3.829767 3.0938,2.603256 c 5.79499,4.876169 15.87456,6.164743 20.39682,2.607534 5.25132,-4.130687 2.72968,-7.086645 -7.50711,-8.800117 -10.28625,-1.721751 -15.3748,-3.764307 -18.43335,-7.399185 -2.36104,-2.805941 -2.59099,-3.775387 -2.23215,-9.410805 0.33472,-5.25668 0.86933,-6.772444 3.27384,-9.282213 4.35046,-4.540903 10.64973,-6.556049 20.04917,-6.413761 5.8782,0.08898 9.4029,0.718168 13.21851,2.3596 7.64913,3.290567 8.06981,4.196089 4.12964,8.889274 l -3.3156,3.949257 -4.38544,-2.570037 c -3.25784,-1.909222 -5.8636,-2.590119 -10.13431,-2.648142 -6.41817,-0.0872 -9.02834,1.354285 -9.02834,4.98597 0,3.000949 2.09519,4.071997 10.60517,5.42129 9.95985,1.579177 16.64102,4.88313 18.71573,9.255258 3.93798,8.298679 -0.0563,17.462017 -9.31254,21.364115 -4.35653,1.836556 -17.25797,2.61813 -22.27389,1.349361 z M 617.58368,73.179798 C 607.43244,69.47048 602,60.81813 602,48.359374 c 0,-16.31954 9.51394,-26.681316 24.5,-26.683315 15.10652,-0.002 23.17914,7.814632 24.86229,24.073941 L 651.90577,51 H 634.4215 c -19.72307,0 -20.39563,0.276117 -16.84147,6.914127 3.59516,6.714577 13.07813,7.842928 20.96022,2.493996 l 3.74141,-2.538987 3.85064,3.760055 3.85065,3.760056 -2.15748,2.296532 c -5.94241,6.325407 -20.65289,8.997855 -30.24179,5.494019 z M 637,40.576725 c 0,-1.332801 -1.165,-3.807801 -2.58889,-5.5 C 632.23013,32.484783 631.11682,32 627.34536,32 c -5.51181,0 -7.87981,1.199044 -9.83501,4.979984 C 614.53713,42.729564 614.94097,43 626.5,43 636.94468,43 637,42.987233 637,40.576725 Z M 0,48 V 21.900192 L 5.75,22.200096 11.5,22.5 l 0.5,3.911581 0.5,3.91158 1.68691,-3.563207 c 3.379708,-7.13885 12.400135,-7.087458 15.985758,0.09108 l 1.672669,3.348736 1.643749,-3.178661 c 1.936951,-3.745651 7.567369,-6.471126 11.402939,-5.519737 7.657438,1.899379 9.259841,7.947128 8.881418,33.520041 L 53.5,73.5 47.75,73.799904 42,74.099808 V 54.984162 C 42,43.719609 41.574834,35.074087 40.964816,33.934259 39.778579,31.717755 35.775565,31.360575 34.144648,33.32571 c -0.694678,0.837035 -1.20058,8.485772 -1.372445,20.75 L 32.5,73.5 26.75,73.799904 21,74.099808 V 54.984162 C 21,43.719609 20.574834,35.074087 19.964816,33.934259 18.778579,31.717755 14.775565,31.360575 13.144648,33.32571 c -0.694678,0.837035 -1.20058,8.485772 -1.372445,20.75 L 11.5,73.5 5.75,73.799904 0,74.099808 Z m 145.5,25.267236 c -3.54113,-0.886629 -7.68875,-4.474738 -9.11314,-7.883774 C 135.42797,63.088504 135,57.734119 135,48.032119 V 34 h -7 -7 v -6 -6 h 5.91821 C 136.04795,22 136,22.05072 136,12.393011 V 4 h 7 7 v 9 9 h 10 10 v 6 6 h -10 -10 v 14 14 h 10 10 v 6 6 l -11.25,-0.116001 c -6.1875,-0.0638 -12.15,-0.341344 -13.25,-0.616763 z m 38.16667,0.0661 C 183.3,72.966667 183,56.316667 183,36.333333 V 0 h 7.5 7.5 v 16.150038 16.150039 l 2.92584,-4.03901 c 7.238,-9.991759 21.46112,-8.975111 27.2768,1.949704 2.15221,4.042943 2.28372,5.408914 2.29034,23.789229 l 0.007,19.5 -7.25,0.29381 -7.25,0.293809 v -16.97871 c 0,-9.33829 -0.42991,-18.10947 -0.95537,-19.49151 C 212.8496,31.844059 204.56185,30.438132 199.9442,35.055777 198.15872,36.841284 198,38.510246 198,55.5 V 74 h -6.83333 c -3.75834,0 -7.13334,-0.3 -7.5,-0.666667 z M 300,48 V 21.900192 l 5.75,0.299904 5.75,0.299904 0.3169,3.859652 0.3169,3.859651 1.80047,-3.359651 c 3.83668,-7.159177 12.75827,-7.147789 16.14302,0.02061 l 1.58514,3.357063 2.09905,-3.557625 c 1.49118,-2.527376 3.23903,-3.899174 6.03562,-4.737051 5.2645,-1.577284 9.03798,0.217031 11.68724,5.557355 1.78736,3.60292 1.9859,6.08467 2,25 l 0.0157,21 -5.75,0.299904 -5.75,0.299904 v -19.11565 c 0,-11.264553 -0.42517,-19.910075 -1.03518,-21.049903 -1.18624,-2.216504 -5.18925,-2.573684 -6.82017,-0.608549 -0.69468,0.837035 -1.20058,8.485772 -1.37245,20.75 L 332.5,73.5 326.75,73.799904 321,74.099808 V 54.984162 c 0,-11.264553 -0.42517,-19.910075 -1.03518,-21.049903 -1.18624,-2.216504 -5.18925,-2.573684 -6.82017,-0.608549 -0.69468,0.837035 -1.20058,8.485772 -1.37245,20.75 L 311.5,73.5 305.75,73.799904 300,74.099808 Z m 123.45031,24.731111 c -0.2678,-0.697889 -0.36618,-12.285389 -0.21861,-25.75 L 423.5,22.5 430.75,22.20619 438,21.912381 v 5.191693 5.191692 l 2.25807,-3.397883 C 442.74519,25.155341 449.97528,21 454,21 c 1.41692,0 4.58407,1.0125 7.03811,2.25 3.42322,1.726228 5.04036,3.413938 6.94685,7.25 2.38198,4.79278 2.48559,5.787435 2.5,24 l 0.015,19 -7.25,0.29381 -7.25,0.293809 v -16.97871 c 0,-9.33829 -0.42991,-18.10947 -0.95537,-19.49151 -2.19501,-5.77334 -10.48276,-7.179267 -15.10041,-2.561622 C 438.15872,36.841284 438,38.510246 438,55.5 V 74 h -7.03138 c -4.75845,0 -7.18879,-0.410177 -7.51831,-1.268889 z m 141.19224,0.25641 C 556.79775,70.593471 555,65.940796 555,48.032119 V 34 h -7 -7 v -6 -6 h 6.3 c 3.56667,0 6.82063,-0.520635 7.5,-1.2 0.72821,-0.728205 1.2,-4.266667 1.2,-9 V 4 h 7 7 v 8.963788 8.963788 l 9.75,0.286212 L 589.5,22.5 v 5.5 5.5 l -9.75,0.286212 -9.75,0.286212 V 48 61.927576 l 9.75,0.286212 L 589.5,62.5 v 5.5 5.5 l -11,0.179774 c -6.05,0.09888 -12.28585,-0.212638 -13.85745,-0.692253 z M 664,68.019502 V 62 h 6 6 V 48 34 h -6 -6 V 27.970975 21.94195 l 13.25,0.279025 13.25,0.279025 0.29557,7.337116 0.29557,7.337116 2.70443,-5.320851 c 3.13865,-6.175166 6.49193,-8.438929 13.95443,-9.420494 L 713,21.742339 V 28.871169 36 h -8.07692 c -7.5938,0 -8.25177,0.174847 -11,2.923077 C 691.08063,41.765519 691,42.123016 691,51.882635 v 10.03648 l 8.25,0.290443 L 707.5,62.5 V 68 73.5 L 685.75,73.769502 664,74.039005 Z"
       id="path1" />
  </g>
</svg>
