<svg xmlns="http://www.w3.org/2000/svg" width="713.2" height="75.2">
  <path fill="#487cff" d="M-303.8 50.4V-1.2h12v7.6h.6q1.2-3.6 3.4-6.2 2.3-2.6 6.4-2.6 7.5 0 9.2 8.8h.6q.6-1.8 1.5-3.4 1-1.6 2.2-2.8 1.3-1.2 3.1-1.9t4.2-.7q10.8 0 10.8 16v36.8h-11.9V15q0-3.6-1.3-5-1.2-1.5-3.2-1.5-1.9 0-3.3 1.3-1.3 1.2-1.3 3.8v36.8h-12V15q0-3.6-1.2-5-1-1.5-3-1.5t-3.5 1.3q-1.4 1.2-1.4 3.8v36.8zm87 1.2q-6 0-10.8-1.8-4.8-1.9-8.2-5.4-3.3-3.5-5-8.5-1.9-5-1.9-11.3 0-6.3 1.8-11.3 1.8-5 5.1-8.5 3.4-3.5 8.2-5.3 4.8-1.9 10.8-1.9 6 0 10.8 2 4.8 1.7 8.1 5.2 3.4 3.5 5.2 8.5 1.8 5 1.8 11.3 0 6.3-1.8 11.3-1.8 5-5.2 8.5-3.3 3.5-8 5.4-4.9 1.8-10.9 1.8zm0-11q5 0 7.8-3 2.8-3.2 2.8-8.9v-8.2q0-5.7-2.8-8.8-2.8-3-7.8-3t-7.8 3q-2.8 3.1-2.8 8.8v8.2q0 5.7 2.8 8.8 2.8 3.1 7.8 3.1zm64 9.8q-8 0-11.9-4.2-3.9-4.2-3.9-10.7V10.3h-14V-1.2h9.1q3.3 0 4.7-1.3 1.4-1.3 1.4-4.8v-12h13.6v18.1h20.1v11.5h-20V39h20v11.5zm32.5-74h14.8V8.2h.6q1-2.2 2.2-4 1.3-2 3.1-3.4 2-1.5 4.3-2.3 2.5-.9 5.6-.9 3.7 0 6.8 1.3 3.1 1.2 5.3 3.7 2.2 2.5 3.4 6.1 1.3 3.6 1.3 8.3v33.4h-14.8V19q0-10-8.7-10-1.7 0-3.4.5-1.6.4-2.9 1.4-1.3 1-2 2.3-.8 1.4-.8 3.3v34h-14.8zm83.5 75.2q-5.6 0-8-2.4-2.5-2.5-2.5-5.9v-3.5q0-3.4 2.4-5.8 2.5-2.5 8.1-2.5t8 2.5q2.5 2.4 2.5 5.8v3.5q0 3.4-2.5 6-2.4 2.3-8 2.3zm33-1.2V-1.2h12v7.6h.6Q10 2.8 12.2.2q2.3-2.6 6.4-2.6 7.5 0 9.2 8.8h.6Q29 4.6 30 3q1-1.6 2.2-2.8 1.3-1.2 3.1-1.9t4.2-.7q10.8 0 10.8 16v36.8h-12V15q0-3.6-1.3-5-1.2-1.5-3.2-1.5-1.9 0-3.3 1.3-1.3 1.2-1.3 3.8v36.8h-12V15q0-3.6-1.2-5-1-1.5-3-1.5T9.4 9.8Q8.1 11 8.1 13.6v36.8zm87 1.2q-6 0-10.8-1.8-4.8-1.9-8.2-5.4-3.3-3.5-5-8.5-1.9-5-1.9-11.3 0-6.3 1.8-11.3 1.8-5 5.1-8.5 3.4-3.5 8.2-5.3 4.8-1.9 10.8-1.9 6 0 10.8 2 4.8 1.7 8.1 5.2 3.4 3.5 5.2 8.5 1.8 5 1.8 11.3 0 6.3-1.8 11.3-1.8 5-5.2 8.5-3.3 3.5-8 5.4-4.9 1.8-10.9 1.8zm0-11q5 0 7.8-3 2.8-3.2 2.8-8.9v-8.2q0-5.7-2.8-8.8-2.8-3-7.8-3t-7.8 3q-2.8 3.1-2.8 8.8v8.2q0 5.7 2.8 8.8 2.8 3.1 7.8 3.1zm36.5 9.8V-1.2h14.8v9.4h.6q1-2.2 2.2-4 1.3-2 3.1-3.4 2-1.5 4.3-2.3 2.5-.9 5.6-.9 3.7 0 6.8 1.3 3.1 1.2 5.3 3.7 2.2 2.5 3.4 6.1 1.3 3.6 1.3 8.3v33.4h-14.8V19q0-10-8.7-10-1.7 0-3.4.5-1.6.4-2.9 1.4-1.3 1-2 2.3-.8 1.4-.8 3.3v34zm83 1.2q-8.7 0-15-2.6-6.4-2.6-9.6-7l8.3-7.8q3 3.3 7 5.2 4.1 1.8 9.3 1.8 4.4 0 7-1.3 2.4-1.4 2.4-4.2 0-2.2-1.7-3-1.7-.9-4.7-1.4l-8.3-1.3q-3.5-.5-6.5-1.5t-5.2-2.9q-2.2-1.8-3.5-4.4-1.3-2.6-1.3-6.3 0-8 6.2-12.7 6.2-4.6 17.4-4.6 7.6 0 13 2.1 5.3 2 8.5 5.8l-7.4 8.4q-2.3-2.5-5.9-4.2Q209.1 8 204 8q-8.6 0-8.6 5.2 0 2.3 1.7 3.2 1.7.8 4.7 1.3L210 19q3.5.5 6.5 1.6 3 1 5.2 2.8 2.3 1.8 3.6 4.4 1.3 2.6 1.3 6.3 0 8.1-6.3 12.8-6.2 4.7-17.7 4.7zm64.5-1.2q-8 0-11.9-4.2-3.9-4.2-3.9-10.7V10.3h-14V-1.2h9.1q3.3 0 4.7-1.3 1.4-1.3 1.4-4.8v-12h13.6v18.1h20.1v11.5h-20V39h20v11.5zm57.4 1.2q-13 0-19.7-7.2-6.7-7.2-6.7-19.6 0-6.3 1.7-11.3 1.8-5 5-8.6 3.3-3.6 8-5.4 4.6-1.9 10.4-1.9 5.8 0 10.4 2 4.6 1.7 7.8 5.1 3.2 3.4 5 8.3 1.7 4.8 1.7 10.8v4.4H313v1q0 5 3.1 8t9.1 3q4.6 0 8-1.7 3.2-1.8 5.6-4.7l8 8.7q-3 3.7-8.4 6.4t-13.7 2.7zm-1.2-43.4q-4.8 0-7.7 3-2.8 3-2.8 8v.7h20.8v-.8q0-5-2.8-8-2.7-2.9-7.5-2.9zM360.6 39h12V10.3h-12V-1.2h26.7v14.6h.7q.7-2.8 2-5.4 1.2-2.7 3.1-4.7 2-2 4.8-3.3 2.8-1.2 6.6-1.2h5v13.6h-11q-5.6 0-8.4 3.3-2.8 3.2-2.8 8v15.2h17v11.5h-43.7z" aria-label="moth.monster" transform="translate(303.8 23.6)"/>
</svg>
